#!OML:ASF H:\MichaelJackson\Top Level 1\Subject 1\Session 1\male.ASF
:FULLY-SPECIFIED
:DEGREES
182
root 22.8186 16.6909 -32.0353 10.8383 -2.6637 -2.0943
lowerback -6.084 -0.0791863 4.34573
upperback -1.34019 -0.377259 -0.144081
thorax 1.99908 -0.167593 -2.61808
lowerneck -8.04252 -1.50744 0.534876
upperneck -4.1083 -2.07901 -2.01926
head 0.0323431 -1.06365 -0.753131
rclavicle -4.02539e-015 -1.00386e-014
rhumerus -43.6342 8.67602 -97.5914
rradius 36.2585
rwrist 6.25413
rhand -22.7415 -31.4404
rfingers 7.12502
rthumb 3.69275 -61.3882
lclavicle -4.02539e-015 -1.00386e-014
lhumerus -39.9284 -12.9481 96.5202
lradius 37.6252
lwrist 10.6413
lhand 4.27421 17.0767
lfingers 7.12502
lthumb 29.6775 44.7219
rfemur -18.0641 -1.74544 23.0688
rtibia 32.3699
rfoot -9.91139 -23.8198
rtoes -29.1162
lfemur -25.7614 3.4688 -19.4934
ltibia 38.9146
lfoot -18.5423 -1.39335
ltoes 42.5296
183
root 22.8084 16.6901 -32.0335 10.9052 -2.66465 -2.05031
lowerback -6.07111 -0.081888 4.31658
upperback -1.36868 -0.377336 -0.161106
thorax 1.96255 -0.169031 -2.61907
lowerneck -8.03675 -1.48403 0.553049
upperneck -4.14434 -2.05014 -2.03351
head 0.0204161 -1.04935 -0.759575
rclavicle -2.6339e-015 5.86415e-015
rhumerus -43.6522 8.67728 -97.5818
rradius 36.2766
rwrist 6.31892
rhand -22.8916 -31.2816
rfingers 7.12502
rthumb 3.54779 -61.2318
lclavicle -2.6339e-015 5.86415e-015
lhumerus -39.9339 -12.7768 96.4575
lradius 37.6249
lwrist 10.646
lhand 3.6135 16.8879
lfingers 7.12502
lthumb 29.0466 44.6437
rfemur -18.1153 -1.66685 23.0632
rtibia 32.351
rfoot -9.91637 -23.8998
rtoes -28.9977
lfemur -25.9888 3.5691 -19.5914
ltibia 39.163
lfoot -18.4788 -1.15847
ltoes 42.4648
184
root 22.7986 16.6887 -32.0313 10.9591 -2.65018 -2.00141
lowerback -6.05048 -0.0891011 4.28084
upperback -1.38931 -0.382849 -0.177514
thorax 1.92947 -0.17299 -2.61611
lowerneck -8.04415 -1.46235 0.564756
upperneck -4.18067 -2.02298 -2.04341
head 0.0106118 -1.03586 -0.763786
rclavicle 4.11236e-015 6.95746e-016
rhumerus -43.6746 8.69257 -97.5743
rradius 36.3243
rwrist 6.38981
rhand -23.027 -31.1163
rfingers 7.12502
rthumb 3.417 -61.0686
lclavicle 4.11236e-015 6.95746e-016
lhumerus -39.9394 -12.5956 96.3896
lradius 37.6333
lwrist 10.6191
lhand 2.97506 16.6219
lfingers 7.12502
lthumb 28.4367 44.4811
rfemur -18.156 -1.64895 23.0527
rtibia 32.3406
rfoot -9.92392 -23.956
rtoes -28.9705
lfemur -26.2083 3.6956 -19.7037
ltibia 39.4285
lfoot -18.4254 -0.839957
ltoes 42.3483
185
root 22.789 16.6867 -32.0288 11.0009 -2.61045 -1.96081
lowerback -6.02222 -0.102592 4.24991
upperback -1.4021 -0.396981 -0.188316
thorax 1.89956 -0.181022 -2.61066
lowerneck -8.06099 -1.44223 0.569146
upperneck -4.22696 -1.99748 -2.05161
head -0.000682652 -1.0231 -0.766321
rclavicle 2.65874e-015 1.23246e-014
rhumerus -43.7005 8.72717 -97.5695
rradius 36.3992
rwrist 6.45807
rhand -23.1533 -30.9343
rfingers 7.12502
rthumb 3.29501 -60.8886
lclavicle 2.65874e-015 1.23246e-014
lhumerus -39.9445 -12.4177 96.3224
lradius 37.6507
lwrist 10.5768
lhand 2.35227 16.2759
lfingers 7.12502
lthumb 27.8414 44.233
rfemur -18.1809 -1.69297 23.054
rtibia 32.3337
rfoot -9.92462 -23.9961
rtoes -29.0395
lfemur -26.4251 3.88522 -19.8225
ltibia 39.7122
lfoot -18.3939 -0.493665
ltoes 42.209
186
root 22.7794 16.6841 -32.0257 11.0278 -2.53913 -1.92518
lowerback -5.98737 -0.145411 4.20266
upperback -1.4068 -0.449265 -0.189737
thorax 1.87167 -0.207979 -2.58913
lowerneck -8.07683 -1.40089 0.608805
upperneck -4.2887 -1.94716 -2.07775
head -0.0169364 -0.998474 -0.779638
rclavicle 8.02593e-015 1.5704e-014
rhumerus -43.7336 8.82766 -97.5975
rradius 36.5011
rwrist 6.5186
rhand -23.262 -30.7407
rfingers 7.12502
rthumb 3.19011 -60.6966
lclavicle 8.02593e-015 1.5704e-014
lhumerus -39.9524 -12.2035 96.2286
lradius 37.685
lwrist 10.5365
lhand 1.73672 15.8707
lfingers 7.12502
lthumb 27.2528 43.9216
rfemur -18.1852 -1.80138 23.0645
rtibia 32.3291
rfoot -9.96052 -24.017
rtoes -29.1496
lfemur -26.6362 4.14709 -19.9567
ltibia 40.0155
lfoot -18.4218 -0.158576
ltoes 42.0693
187
root 22.7701 16.6809 -32.0219 11.047 -2.43797 -1.90462
lowerback -5.95254 -0.20746 4.15424
upperback -1.40931 -0.527417 -0.180254
thorax 1.84431 -0.2478 -2.55752
lowerneck -8.07682 -1.34688 0.673685
upperneck -4.36916 -1.88263 -2.11969
head -0.0415914 -0.96704 -0.801489
rclavicle -1.05604e-015 1.73937e-014
rhumerus -43.7809 8.98288 -97.649
rradius 36.6293
rwrist 6.55733
rhand -23.353 -30.5283
rfingers 7.12502
rthumb 3.10224 -60.4855
lclavicle -1.05604e-015 1.73937e-014
lhumerus -39.9725 -11.984 96.1279
lradius 37.7367
lwrist 10.5065
lhand 1.12392 15.4623
lfingers 7.12502
lthumb 26.6665 43.6039
rfemur -18.1739 -1.95587 23.0937
rtibia 32.3206
rfoot -10.0197 -24.0276
rtoes -29.2877
lfemur -26.8548 4.50671 -20.1099
ltibia 40.3434
lfoot -18.5 0.204742
ltoes 41.8117
188
root 22.7613 16.6772 -32.0173 11.0674 -2.31526 -1.90825
lowerback -5.92454 -0.284663 4.1137
upperback -1.41522 -0.626798 -0.15764
thorax 1.8159 -0.298261 -2.51825
lowerneck -8.05756 -1.27936 0.768016
upperneck -4.45589 -1.80287 -2.17972
head -0.071312 -0.9284 -0.833396
rclavicle 5.41688e-015 -1.26228e-014
rhumerus -43.8454 9.18908 -97.7213
rradius 36.7779
rwrist 6.57978
rhand -23.4222 -30.3002
rfingers 7.12502
rthumb 3.03542 -60.2584
lclavicle 5.41688e-015 -1.26228e-014
lhumerus -40.0104 -11.7632 96.0247
lradius 37.8063
lwrist 10.4925
lhand 0.498747 15.0714
lfingers 7.12502
lthumb 26.068 43.3027
rfemur -18.1576 -2.13514 23.1488
rtibia 32.3078
rfoot -10.1072 -24.031
rtoes -29.4284
lfemur -27.0913 4.97868 -20.2818
ltibia 40.6963
lfoot -18.6289 0.549273
ltoes 41.5343
189
root 22.7532 16.673 -32.0115 11.0928 -2.17473 -1.93115
lowerback -5.90973 -0.3736 4.08179
upperback -1.42871 -0.742988 -0.126095
thorax 1.78602 -0.357226 -2.47581
lowerneck -8.01347 -1.20092 0.889796
upperneck -4.54774 -1.71108 -2.25732
head -0.10661 -0.884089 -0.874996
rclavicle -6.07536e-015 -8.74653e-015
rhumerus -43.9283 9.43442 -97.8109
rradius 36.9383
rwrist 6.58899
rhand -23.4695 -30.0159
rfingers 7.12502
rthumb 2.98971 -59.9747
lclavicle -6.07536e-015 -8.74653e-015
lhumerus -40.0709 -11.5431 95.9197
lradius 37.8909
lwrist 10.4858
lhand -0.143665 14.7105
lfingers 7.12502
lthumb 25.4528 43.0309
rfemur -18.1363 -2.32891 23.2237
rtibia 32.2884
rfoot -10.2272 -24.0345
rtoes -29.5557
lfemur -27.3549 5.57371 -20.4864
ltibia 41.0774
lfoot -18.8039 0.829914
ltoes 41.2493
190
root 22.7459 16.6686 -32.0041 11.1237 -2.02175 -1.97451
lowerback -5.91061 -0.465241 4.06484
upperback -1.45113 -0.864367 -0.087429
thorax 1.75544 -0.418874 -2.43484
lowerneck -7.94645 -1.11874 1.02815
upperneck -4.6347 -1.61552 -2.34626
head -0.144056 -0.83808 -0.92288
rclavicle -1.02623e-014 -7.65321e-015
rhumerus -44.0269 9.6981 -97.9053
rradius 37.1021
rwrist 6.58863
rhand -23.4868 -29.6741
rfingers 7.12502
rthumb 2.97295 -59.6331
lclavicle -1.02623e-014 -7.65321e-015
lhumerus -40.1569 -11.3364 95.8204
lradius 37.9959
lwrist 10.4838
lhand -0.783003 14.4419
lfingers 7.12502
lthumb 24.8402 42.8483
rfemur -18.1124 -2.51673 23.3183
rtibia 32.2641
rfoot -10.3628 -24.0501
rtoes -29.6679
lfemur -27.6491 6.28531 -20.7238
ltibia 41.4832
lfoot -19.0131 1.00984
ltoes 40.9851
191
root 22.7395 16.6638 -31.9952 11.1664 -1.85465 -2.03516
lowerback -5.93107 -0.552025 4.06893
upperback -1.48584 -0.981236 -0.0453849
thorax 1.72333 -0.478417 -2.40199
lowerneck -7.86599 -1.04193 1.16593
upperneck -4.70675 -1.52655 -2.43651
head -0.179028 -0.795324 -0.971443
rclavicle -8.58501e-015 -2.38542e-015
rhumerus -44.1371 9.94987 -97.9887
rradius 37.2615
rwrist 6.58169
rhand -23.4808 -29.2792
rfingers 7.12502
rthumb 2.97874 -59.2381
lclavicle -8.58501e-015 -2.38542e-015
lhumerus -40.2561 -11.1386 95.7287
lradius 38.0989
lwrist 10.4475
lhand -1.41858 14.1881
lfingers 7.12502
lthumb 24.2309 42.6771
rfemur -18.0903 -2.68445 23.43
rtibia 32.2345
rfoot -10.5125 -24.0927
rtoes -29.7511
lfemur -27.982 7.09781 -20.9964
ltibia 41.9069
lfoot -19.2205 1.04711
ltoes 40.764
192
root 22.7339 16.6586 -31.9848 11.226 -1.6593 -2.12085
lowerback -5.97386 -0.629753 4.10598
upperback -1.53416 -1.08885 0.00149051
thorax 1.68989 -0.533481 -2.38221
lowerneck -7.78197 -0.97882 1.28779
upperneck -4.75998 -1.45387 -2.52086
head -0.208824 -0.760452 -1.0161
rclavicle 9.30561e-015 3.47873e-015
rhumerus -44.251 10.1644 -98.0455
rradius 37.4076
rwrist 6.5814
rhand -23.442 -28.8526
rfingers 7.12502
rthumb 3.01629 -58.811
lclavicle 9.30561e-015 3.47873e-015
lhumerus -40.3623 -10.9582 95.6489
lradius 38.197
lwrist 10.3666
lhand -2.02715 13.9926
lfingers 7.12502
lthumb 23.6474 42.5582
rfemur -18.0777 -2.81583 23.5719
rtibia 32.2034
rfoot -10.6504 -24.1895
rtoes -29.796
lfemur -28.3613 7.96191 -21.2825
ltibia 42.3363
lfoot -19.3909 0.941415
ltoes 40.624
193
root 22.7289 16.6532 -31.9727 11.2968 -1.43961 -2.22103
lowerback -6.03517 -0.694637 4.16645
upperback -1.59232 -1.18144 0.0493393
thorax 1.65721 -0.581136 -2.37376
lowerneck -7.70282 -0.932989 1.38211
upperneck -4.79567 -1.40131 -2.59113
head -0.232508 -0.735208 -1.05236
rclavicle -9.42985e-015 5.96354e-016
rhumerus -44.3614 10.3263 -98.0654
rradius 37.5354
rwrist 6.59146
rhand -23.3742 -28.3921
rfingers 7.12502
rthumb 3.08176 -58.3496
lclavicle -9.42985e-015 5.96354e-016
lhumerus -40.4671 -10.7925 95.5797
lradius 38.2849
lwrist 10.2349
lhand -2.58871 13.8869
lfingers 7.12502
lthumb 23.1086 42.5211
rfemur -18.0676 -2.9172 23.7324
rtibia 32.1726
rfoot -10.7757 -24.3386
rtoes -29.8385
lfemur -28.7782 8.85559 -21.5848
ltibia 42.7567
lfoot -19.5404 0.62551
ltoes 40.5474
194
root 22.7243 16.6473 -31.959 11.3724 -1.19338 -2.32534
lowerback -6.10822 -0.748192 4.23863
upperback -1.65638 -1.26005 0.0945073
thorax 1.6256 -0.621881 -2.37385
lowerneck -7.63699 -0.906389 1.45011
upperneck -4.81489 -1.37165 -2.64347
head -0.249154 -0.721044 -1.07923
rclavicle 2.83268e-015 -1.65985e-014
rhumerus -44.4614 10.4265 -98.0444
rradius 37.6423
rwrist 6.61333
rhand -23.2751 -27.9286
rfingers 7.12502
rthumb 3.17741 -57.8846
lclavicle 2.83268e-015 -1.65985e-014
lhumerus -40.5624 -10.634 95.5137
lradius 38.3585
lwrist 10.0559
lhand -3.08665 13.8292
lfingers 7.12502
lthumb 22.6308 42.5225
rfemur -18.0542 -2.98475 23.9017
rtibia 32.1464
rfoot -10.8891 -24.551
rtoes -29.8677
lfemur -29.2178 9.71988 -21.8985
ltibia 43.1502
lfoot -19.6636 0.137849
ltoes 40.4947
195
root 22.7203 16.6408 -31.944 11.4557 -0.924444 -2.44
lowerback -6.19179 -0.778244 4.33396
upperback -1.72592 -1.30917 0.136986
thorax 1.5956 -0.647951 -2.3878
lowerneck -7.59672 -0.910399 1.46898
upperneck -4.81397 -1.37825 -2.66748
head -0.255795 -0.72434 -1.08984
rclavicle 1.36043e-014 -1.44119e-014
rhumerus -44.5451 10.444 -97.9659
rradius 37.7266
rwrist 6.63803
rhand -23.1491 -27.4542
rfingers 7.12502
rthumb 3.29911 -57.4084
lclavicle 1.36043e-014 -1.44119e-014
lhumerus -40.6424 -10.5072 95.4652
lradius 38.4123
lwrist 9.84469
lhand -3.51945 13.8284
lfingers 7.12502
lthumb 22.2154 42.5717
rfemur -18.0427 -3.01984 24.0866
rtibia 32.1254
rfoot -10.9894 -24.8239
rtoes -29.8503
lfemur -29.6776 10.5274 -22.208
ltibia 43.502
lfoot -19.7325 -0.463275
ltoes 40.4082
